<svg width="375" height="44" viewBox="0 0 375 44" fill="none" xmlns="http://www.w3.org/2000/svg">
<rect width="375" height="44" fill=""/>
<path d="M106.555 19.01C107.615 19.01 108.388 19.2133 108.875 19.62C109.361 20.0267 109.605 20.6533 109.605 21.5C109.605 22.3467 109.355 22.9667 108.855 23.36C108.361 23.7533 107.601 23.95 106.575 23.95H105.335V26H104.155V19.01H106.555ZM106.705 22.88C107.358 22.88 107.801 22.7567 108.035 22.51C108.275 22.2567 108.395 21.89 108.395 21.41C108.395 20.9233 108.245 20.58 107.945 20.38C107.645 20.18 107.175 20.08 106.535 20.08H105.335V22.88H106.705ZM111.812 24.6C112.132 24.92 112.535 25.08 113.022 25.08C113.509 25.08 113.909 24.92 114.222 24.6C114.542 24.2733 114.702 23.8533 114.702 23.34C114.702 22.8267 114.542 22.41 114.222 22.09C113.909 21.7633 113.509 21.6 113.022 21.6C112.535 21.6 112.132 21.7633 111.812 22.09C111.499 22.41 111.342 22.8267 111.342 23.34C111.342 23.8533 111.499 24.2733 111.812 24.6ZM115.022 25.29C114.489 25.8167 113.822 26.08 113.022 26.08C112.222 26.08 111.555 25.8167 111.022 25.29C110.489 24.7567 110.222 24.1067 110.222 23.34C110.222 22.5733 110.489 21.9267 111.022 21.4C111.555 20.8667 112.222 20.6 113.022 20.6C113.822 20.6 114.489 20.8667 115.022 21.4C115.555 21.9267 115.822 22.5733 115.822 23.34C115.822 24.1067 115.555 24.7567 115.022 25.29ZM119.317 26H118.037L116.197 20.68H117.357L118.677 24.7L119.997 20.68H121.157L122.477 24.7L123.797 20.68H124.957L123.117 26H121.837L120.577 22.36L119.317 26ZM130.698 23.83H126.528C126.555 24.2167 126.732 24.53 127.058 24.77C127.385 25.0033 127.758 25.12 128.178 25.12C128.845 25.12 129.352 24.91 129.698 24.49L130.338 25.19C129.765 25.7833 129.018 26.08 128.098 26.08C127.352 26.08 126.715 25.8333 126.188 25.34C125.668 24.84 125.408 24.1733 125.408 23.34C125.408 22.5 125.675 21.8333 126.208 21.34C126.742 20.8467 127.368 20.6 128.088 20.6C128.815 20.6 129.432 20.82 129.938 21.26C130.445 21.6933 130.698 22.2933 130.698 23.06V23.83ZM126.528 22.95H129.578C129.578 22.5033 129.438 22.16 129.158 21.92C128.878 21.68 128.532 21.56 128.118 21.56C127.712 21.56 127.345 21.6867 127.018 21.94C126.692 22.1867 126.528 22.5233 126.528 22.95ZM134.52 21.73C133.967 21.73 133.55 21.91 133.27 22.27C132.99 22.63 132.85 23.1133 132.85 23.72V26H131.73V20.68H132.85V21.75C133.03 21.4167 133.273 21.1433 133.58 20.93C133.893 20.7167 134.223 20.6067 134.57 20.6L134.58 21.73C134.56 21.73 134.54 21.73 134.52 21.73ZM140.455 23.83H136.285C136.311 24.2167 136.488 24.53 136.815 24.77C137.141 25.0033 137.515 25.12 137.935 25.12C138.601 25.12 139.108 24.91 139.455 24.49L140.095 25.19C139.521 25.7833 138.775 26.08 137.855 26.08C137.108 26.08 136.471 25.8333 135.945 25.34C135.425 24.84 135.165 24.1733 135.165 23.34C135.165 22.5 135.431 21.8333 135.965 21.34C136.498 20.8467 137.125 20.6 137.845 20.6C138.571 20.6 139.188 20.82 139.695 21.26C140.201 21.6933 140.455 22.2933 140.455 23.06V23.83ZM136.285 22.95H139.335C139.335 22.5033 139.195 22.16 138.915 21.92C138.635 21.68 138.288 21.56 137.875 21.56C137.468 21.56 137.101 21.6867 136.775 21.94C136.448 22.1867 136.285 22.5233 136.285 22.95ZM143.656 26.08C142.983 26.08 142.396 25.8267 141.896 25.32C141.396 24.8133 141.146 24.1467 141.146 23.32C141.146 22.4933 141.403 21.8333 141.916 21.34C142.43 20.8467 143.04 20.6 143.746 20.6C144.46 20.6 145.033 20.9 145.466 21.5V18.58H146.586V26H145.466V25.2C145.053 25.7867 144.45 26.08 143.656 26.08ZM142.266 23.37C142.266 23.8767 142.43 24.29 142.756 24.61C143.083 24.93 143.466 25.09 143.906 25.09C144.346 25.09 144.72 24.93 145.026 24.61C145.333 24.2833 145.486 23.8667 145.486 23.36C145.486 22.8533 145.333 22.43 145.026 22.09C144.72 21.75 144.343 21.58 143.896 21.58C143.45 21.58 143.066 21.75 142.746 22.09C142.426 22.43 142.266 22.8567 142.266 23.37ZM153.399 20.6C154.112 20.6 154.722 20.8467 155.229 21.34C155.736 21.8333 155.989 22.49 155.989 23.31C155.989 24.13 155.736 24.7967 155.229 25.31C154.729 25.8233 154.142 26.08 153.469 26.08C152.802 26.08 152.202 25.7867 151.669 25.2V26H150.549V18.58H151.669V21.61C152.109 20.9367 152.686 20.6 153.399 20.6ZM151.649 23.35C151.649 23.8567 151.802 24.2733 152.109 24.6C152.416 24.92 152.789 25.08 153.229 25.08C153.669 25.08 154.052 24.92 154.379 24.6C154.706 24.28 154.869 23.8667 154.869 23.36C154.869 22.8467 154.709 22.4233 154.389 22.09C154.069 21.75 153.686 21.58 153.239 21.58C152.792 21.58 152.416 21.75 152.109 22.09C151.802 22.4233 151.649 22.8433 151.649 23.35ZM157.738 28.12C157.251 28.12 156.811 27.9433 156.418 27.59L156.928 26.68C157.161 26.9 157.401 27.01 157.648 27.01C157.901 27.01 158.104 26.92 158.258 26.74C158.418 26.56 158.498 26.3633 158.498 26.15C158.498 26.0567 157.781 24.2333 156.348 20.68H157.548L159.138 24.6L160.728 20.68H161.928L159.348 27C159.194 27.3467 158.974 27.62 158.688 27.82C158.401 28.02 158.084 28.12 157.738 28.12Z" fill="#A0A0A0"/>
<path d="M202.829 11C199.016 11 195.466 12.8319 193.357 15.9021C193.146 16.2074 193.234 16.6145 193.55 16.8011C193.866 17.0046 194.288 16.9198 194.481 16.6145C196.344 13.9175 199.473 12.2891 202.847 12.2891C208.401 12.2891 212.9 16.6315 212.9 21.9746C212.9 27.3346 208.383 31.6769 202.847 31.6769C197.311 31.6769 192.812 27.3177 192.812 21.9746C192.794 15.936 187.68 11 181.388 11C175.114 11 170 15.936 170 21.9915C170 28.064 175.114 33 181.388 33C185.22 33 188.77 31.1511 190.896 28.081C191.107 27.7756 191.019 27.3685 190.703 27.182C190.387 26.9784 189.965 27.0632 189.771 27.3685C187.891 30.0655 184.763 31.6939 181.388 31.6939C175.852 31.6939 171.353 27.3346 171.353 21.9915C171.353 16.6484 175.852 12.3061 181.388 12.3061C186.942 12.3061 191.441 16.6484 191.441 21.9915C191.441 28.064 196.555 33 202.829 33C209.121 33 214.235 28.064 214.235 21.9915C214.235 15.936 209.121 11 202.829 11Z" fill="#A0A0A0"/>
<path d="M202.829 17.1742C202.46 17.1742 202.162 17.4626 202.162 17.8188V21.3469H198.506C198.137 21.3469 197.838 21.6353 197.838 21.9915C197.838 22.3477 198.137 22.636 198.506 22.636H202.162V26.1642C202.162 26.5204 202.46 26.8087 202.829 26.8087C203.198 26.8087 203.497 26.5204 203.497 26.1642V22.653H207.153C207.522 22.653 207.821 22.3646 207.821 22.0084C207.821 21.6522 207.522 21.3639 207.153 21.3639H203.497V17.8357C203.497 17.4626 203.198 17.1742 202.829 17.1742Z" fill="#A0A0A0"/>
<path d="M178.084 17.2761C177.873 17.1743 177.627 17.1912 177.434 17.31C177.241 17.4287 177.118 17.6323 177.118 17.8528V26.1982C177.118 26.4187 177.241 26.6392 177.434 26.741C177.54 26.8088 177.663 26.8428 177.786 26.8428C177.891 26.8428 177.996 26.8258 178.084 26.7749L186.731 22.5852C186.96 22.4835 187.1 22.246 187.1 22.0085C187.1 21.771 186.96 21.5336 186.731 21.4318L178.084 17.2761ZM178.453 25.1465V18.8875L184.938 22.0085L178.453 25.1465Z" fill="#A0A0A0"/>
<path d="M221.231 14.3416H220.071V20.0578H221.231V14.3416Z" fill="#A0A0A0"/>
<path d="M229.333 18.2429L226.169 14.3416H225.203V20.0578H226.31V16.1735L229.473 20.0578H230.422V14.3416H229.333V18.2429Z" fill="#A0A0A0"/>
<path d="M237.03 19.1079C235.941 19.1079 235.15 18.3276 235.15 17.1912C235.15 16.0717 235.958 15.2744 237.065 15.2744C237.839 15.2744 238.366 15.5967 238.7 16.2583L239.754 15.8681C239.245 14.8843 238.348 14.2567 237.048 14.2567C235.29 14.2567 233.99 15.5119 233.99 17.1912C233.99 18.9044 235.29 20.1426 237.013 20.1426C238.348 20.1426 239.315 19.4811 239.79 18.4633L238.735 18.0563C238.419 18.7856 237.874 19.1079 237.03 19.1079Z" fill="#A0A0A0"/>
<path d="M244.886 17.6322H247.628V16.7163H244.886V15.3084H247.804V14.3416H243.761V20.0578H247.839V19.074H244.886V17.6322Z" fill="#A0A0A0"/>
<path d="M255.941 18.2429L252.777 14.3416H251.811V20.0578H252.918V16.1735L256.081 20.0578H257.048V14.3416H255.941V18.2429Z" fill="#A0A0A0"/>
<path d="M265.624 14.3416H260.616V15.3593H262.549V20.0578H263.674V15.3593H265.624V14.3416Z" fill="#A0A0A0"/>
<path d="M270.756 14.3416H269.596V20.0578H270.756V14.3416Z" fill="#A0A0A0"/>
<path d="M280.932 14.3416H279.684L277.891 18.6669L277.821 18.9044L277.751 18.6669L275.958 14.3416H274.71L277.188 20.0578H278.436L280.932 14.3416Z" fill="#A0A0A0"/>
<path d="M285.818 17.6322H288.559V16.7163H285.818V15.3084H288.735V14.3416H284.693V20.0578H288.77V19.074H285.818V17.6322Z" fill="#A0A0A0"/>
<path d="M224.992 26.4695H221.916V27.3685H223.814C223.656 28.2336 222.953 28.7764 222.004 28.7764C220.897 28.7764 220.106 27.9961 220.106 26.8596C220.106 25.7401 220.914 24.9429 222.022 24.9429C222.76 24.9429 223.305 25.2482 223.621 25.8249L224.711 25.4348C224.201 24.4849 223.269 23.9252 222.022 23.9252C220.264 23.9252 218.964 25.1804 218.964 26.8596C218.964 28.5728 220.264 29.8111 222.004 29.8111C223.797 29.8111 225.009 28.5898 225.009 26.8766C225.009 26.6222 224.992 26.4695 224.992 26.4695Z" fill="#A0A0A0"/>
<path d="M230.774 23.9761L228.366 29.6923H229.579L230.071 28.4711H232.76L233.252 29.6923H234.5L232.092 23.9761H230.774ZM230.475 27.5042L231.371 25.2822L231.442 25.0277L231.512 25.2822L232.408 27.5042H230.475Z" fill="#A0A0A0"/>
<path d="M241.283 28.1149L238.841 23.9761H237.874V29.6923H238.981V26.1472L241.073 29.6923H241.494L243.586 26.1303V29.6923H244.675V23.9761H243.709L241.283 28.1149Z" fill="#A0A0A0"/>
<path d="M249.772 27.2667H252.531V26.3508H249.772V24.9429H252.689V23.9761H248.647V29.6923H252.724V28.7085H249.772V27.2667Z" fill="#A0A0A0"/>
<path d="M259.491 26.4865L258.788 26.2829C258.19 26.1133 257.909 25.8589 257.909 25.4687C257.909 25.0616 258.243 24.8242 258.77 24.8242C259.596 24.8242 259.737 25.5026 259.737 25.5026L260.739 25.1634C260.739 25.1634 260.405 23.8912 258.753 23.8912C257.558 23.8912 256.802 24.5188 256.802 25.5196C256.802 26.3677 257.276 26.8766 258.225 27.148L258.893 27.3346C259.456 27.4872 259.719 27.7247 259.719 28.1488C259.719 28.5898 259.35 28.8442 258.77 28.8442C257.856 28.8442 257.716 28.0131 257.716 28.0131L256.696 28.3014C256.696 28.3014 257.048 29.7771 258.788 29.7771C260.053 29.7771 260.879 29.1156 260.879 28.0979C260.879 27.2667 260.405 26.7579 259.491 26.4865Z" fill="#A0A0A0"/>
<path d="M83.38 15.42L79.64 25.1H83.38L80.3 35L88.44 22.24H84.7L88.44 15.42H83.38Z" fill="#A0A0A0"/>
<path d="M93.005 13L90.2 20.1784H93.005L90.695 27.52L96.8 18.0575H93.995L96.8 13H93.005Z" fill="#A0A0A0"/>
</svg>
